<?xml version="1.0" encoding="UTF-8"?><svg id="Layer_2" xmlns="http://www.w3.org/2000/svg" xmlns:xlink="http://www.w3.org/1999/xlink" viewBox="0 0 768.66 977.2"><defs><style>.cls-1{fill:url(#GradientFill_13);}.cls-1,.cls-2,.cls-3,.cls-4{fill-rule:evenodd;}.cls-2{fill:url(#GradientFill_13-2);}.cls-3{fill:url(#GradientFill_11);}.cls-4{fill:url(#GradientFill_11-2);}</style><linearGradient id="GradientFill_11" x1="343.74" y1="583.84" x2="60.52" y2="769.68" gradientUnits="userSpaceOnUse"><stop offset="0" stop-color="#0078bf"/><stop offset="1" stop-color="#31a4de"/></linearGradient><linearGradient id="GradientFill_13" x1="708.1" y1="207.54" x2="424.88" y2="393.38" gradientUnits="userSpaceOnUse"><stop offset="0" stop-color="#009f3c"/><stop offset="1" stop-color="#4ab034"/></linearGradient><linearGradient id="GradientFill_11-2" x1="171.99" y1="973.04" x2="165.27" y2="454.58" xlink:href="#GradientFill_11"/><linearGradient id="GradientFill_13-2" x1="573.21" y1="281.72" x2="408.35" y2="412.23" xlink:href="#GradientFill_13"/></defs><g id="Layer_1-2"><g><path class="cls-3" d="m451.54,856.34c-66.57,115.3-215.37,155.18-330.68,88.61h0C5.55,878.38-34.33,729.57,32.25,614.27l185.92-322.02c17.93,94.57,66.04,170.35,144.36,226.79,106.94,77.06,157.95,217.91,89.01,337.31Z"/><path class="cls-1" d="m647.8,32.25h0c115.3,66.57,155.18,215.38,88.61,330.68l-185.92,322.02c-17.93-94.57-66.03-170.35-144.36-226.79-106.94-77.06-157.95-217.91-89.01-337.31C383.69,5.55,532.5-34.33,647.8,32.25Z"/><path class="cls-4" d="m218.17,292.24L32.25,614.27c-66.57,115.3-26.7,264.11,88.61,330.68,69.55,40.16,151.3,41.58,219.83,11.08-57.55,13.17-119.98,5.58-174.83-26.08-115.3-66.57-155.18-215.38-88.6-330.68l151.86-263.03c-4.42-14.18-8.07-28.85-10.94-44Z"/><path class="cls-2" d="m317.12,120.85c-68.94,119.4-17.92,260.24,89.01,337.31,78.32,56.44,126.43,132.23,144.36,226.79l34.06-59c-23.18-74.35-67.64-135.39-133.42-182.8-106.94-77.06-157.95-217.91-89.01-337.31,26.41-45.75,65.77-79.63,110.85-99.69-63.44,14.51-120.95,54.23-155.85,114.69Z"/></g></g></svg>